<svg xmlns="http://www.w3.org/2000/svg" viewBox="0 0 24 24">
  <path d="M16.28 4.47a.5.5 0 0 1 .95 0l.4 1.23a.5.5 0 0 0 .28.3l1.25.54a.5.5 0 0 1 0 .92L17.91 8a.5.5 0 0 0-.28.3l-.4 1.24a.5.5 0 0 1-.95 0l-.4-1.23a.5.5 0 0 0-.28-.3l-1.26-.54a.5.5 0 0 1 0-.92l1.26-.53a.5.5 0 0 0 .28-.3l.4-1.24ZM9.04 7.56a.75.75 0 0 1 1.42 0l.94 2.72c.07.21.23.38.43.46l2.68 1.06a.75.75 0 0 1 0 1.4l-2.68 1.06a.75.75 0 0 0-.43.46l-.94 2.72a.75.75 0 0 1-1.42 0l-.93-2.72a.75.75 0 0 0-.43-.46L5 13.2a.75.75 0 0 1 0-1.4l2.68-1.06c.2-.08.36-.25.43-.46l.93-2.72Zm8.19 6.91a.5.5 0 0 0-.95 0l-.4 1.23a.5.5 0 0 1-.28.3l-1.26.54a.5.5 0 0 0 0 .92l1.26.53a.5.5 0 0 1 .28.3l.4 1.24c.15.46.8.46.95 0l.4-1.23a.5.5 0 0 1 .28-.3l1.25-.54a.5.5 0 0 0 0-.92L17.91 16a.5.5 0 0 1-.28-.3l-.4-1.24Z"></path>
</svg>
